<svg width="22" height="20" viewBox="0 0 22 20" fill="none" xmlns="http://www.w3.org/2000/svg">
    <path d="M19.1 7.21945C17.29 7.21945 16.55 5.93945 17.45 4.36945C17.97 3.45945 17.66 2.29945 16.75 1.77945L15.02 0.789448C14.23 0.319448 13.21 0.599448 12.74 1.38945L12.63 1.57945C11.73 3.14945 10.25 3.14945 9.34 1.57945L9.23 1.38945C8.78 0.599448 7.76 0.319448 6.97 0.789448L5.24 1.77945C4.33 2.29945 4.02 3.46945 4.54 4.37945C5.45 5.93945 4.71 7.21945 2.9 7.21945C1.86 7.21945 1 8.06945 1 9.11945V10.8794C1 11.9194 1.85 12.7794 2.9 12.7794C4.71 12.7794 5.45 14.0594 4.54 15.6294C4.02 16.5394 4.33 17.6994 5.24 18.2194L6.97 19.2094C7.76 19.6794 8.78 19.3994 9.25 18.6094L9.36 18.4194C10.26 16.8494 11.74 16.8494 12.65 18.4194L12.76 18.6094C13.23 19.3994 14.25 19.6794 15.04 19.2094L16.77 18.2194C17.68 17.6994 17.99 16.5294 17.47 15.6294C16.56 14.0594 17.3 12.7794 19.11 12.7794C20.15 12.7794 21.01 11.9294 21.01 10.8794V9.11945C21 8.07945 20.15 7.21945 19.1 7.21945ZM11 13.2494C9.21 13.2494 7.75 11.7894 7.75 9.99945C7.75 8.20945 9.21 6.74945 11 6.74945C12.79 6.74945 14.25 8.20945 14.25 9.99945C14.25 11.7894 12.79 13.2494 11 13.2494Z" stroke="#007D82"/>
</svg>
    