<svg width="22" height="22" viewBox="0 0 22 22" fill="none" xmlns="http://www.w3.org/2000/svg">
    <path d="M11.0002 1.25C9.07188 1.25 7.18682 1.82183 5.58344 2.89317C3.98006 3.96452 2.73038 5.48726 1.99242 7.26884C1.25447 9.05042 1.06139 11.0108 1.43759 12.9021C1.8138 14.7934 2.7424 16.5307 4.10596 17.8943C5.46952 19.2579 7.2068 20.1865 9.09812 20.5627C10.9894 20.9389 12.9498 20.7458 14.7314 20.0078C16.513 19.2699 18.0357 18.0202 19.1071 16.4168C20.1784 14.8134 20.7502 12.9284 20.7502 11C20.7473 8.41504 19.7192 5.93679 17.8913 4.10894C16.0635 2.28109 13.5852 1.25293 11.0002 1.25V1.25ZM11.0003 17C10.7778 17 10.5603 16.9341 10.3753 16.8104C10.1903 16.6868 10.0461 16.5111 9.96093 16.3056C9.87579 16.1 9.85351 15.8738 9.89692 15.6556C9.94032 15.4373 10.0475 15.2369 10.2048 15.0795C10.3621 14.9222 10.5626 14.8151 10.7808 14.7717C10.9991 14.7282 11.2253 14.7505 11.4308 14.8357C11.6364 14.9208 11.8121 15.065 11.9357 15.25C12.0593 15.435 12.1253 15.6525 12.1253 15.875C12.1253 16.1734 12.0068 16.4596 11.7958 16.6705C11.5848 16.8815 11.2987 17 11.0003 17ZM11.7503 12.4165V12.5005C11.7503 12.6994 11.6712 12.8901 11.5306 13.0308C11.3899 13.1714 11.1992 13.2505 11.0003 13.2505C10.8013 13.2505 10.6106 13.1714 10.4699 13.0308C10.3293 12.8901 10.2503 12.6994 10.2503 12.5005V11.7505C10.2503 11.5515 10.3293 11.3608 10.4699 11.2201C10.6106 11.0795 10.8013 11.0005 11.0003 11.0005C11.3711 11.0005 11.7336 10.8905 12.0419 10.6845C12.3503 10.4784 12.5906 10.1856 12.7325 9.84299C12.8744 9.50038 12.9116 9.12338 12.8392 8.75966C12.7669 8.39595 12.5883 8.06186 12.3261 7.79963C12.0639 7.53741 11.7298 7.35883 11.366 7.28649C11.0023 7.21414 10.6253 7.25127 10.2827 7.39318C9.94011 7.5351 9.64728 7.77542 9.44125 8.08376C9.23522 8.39211 9.12525 8.75462 9.12525 9.12546C9.12525 9.32437 9.04624 9.51513 8.90558 9.65579C8.76493 9.79644 8.57417 9.87546 8.37525 9.87546C8.17634 9.87546 7.98558 9.79644 7.84492 9.65579C7.70427 9.51513 7.62525 9.32437 7.62525 9.12546C7.62534 8.49014 7.80474 7.86774 8.14283 7.32985C8.48092 6.79196 8.96397 6.36042 9.53642 6.08487C10.1089 5.80931 10.7475 5.70093 11.3788 5.77219C12.0101 5.84344 12.6085 6.09145 13.1051 6.48767C13.6017 6.88389 13.9764 7.41225 14.1861 8.01196C14.3958 8.61168 14.432 9.25841 14.2904 9.87776C14.1489 10.4971 13.8354 11.0639 13.3861 11.5131C12.9367 11.9622 12.3697 12.2753 11.7503 12.4165Z" stroke="black"/>
</svg>
    