<svg width="18" height="20" viewBox="0 0 18 20" fill="none" xmlns="http://www.w3.org/2000/svg">
    <path d="M12.73 1.87519L12.73 1.87519V1.88V2.82C12.73 3.58386 12.1139 4.2 11.35 4.2H6.64001C5.87615 4.2 5.26001 3.58386 5.26001 2.82V1.88C5.26001 1.11959 5.88269 0.5 6.65001 0.5H11.35C12.1183 0.5 12.7373 1.11947 12.73 1.87519Z" stroke="#131313"/>
    <path d="M11.35 6.20949C13.2162 6.20949 14.74 4.68563 14.74 2.81949C14.74 2.65295 14.9252 2.5187 15.1077 2.61226C16.3589 3.27894 17.21 4.60178 17.21 6.11949V15.5295C17.21 17.7134 15.4239 19.4995 13.24 19.4995H4.76004C2.57618 19.4995 0.790039 17.7133 0.790039 15.5295V6.11949C0.790039 4.60178 1.64117 3.27893 2.89236 2.61225C3.0749 2.51871 3.26004 2.65296 3.26004 2.81949C3.26004 4.68563 4.7839 6.20949 6.65004 6.20949H11.35ZM8.69359 15.083L12.6936 11.083C13.1789 10.5978 13.1789 9.8012 12.6936 9.31594C12.2083 8.83068 11.4117 8.83068 10.9265 9.31594L7.81004 12.4324L7.19359 11.8159C6.70833 11.3307 5.91175 11.3307 5.42649 11.8159C4.94122 12.3012 4.94122 13.0978 5.42649 13.583L6.92649 15.083C7.17519 15.3318 7.49458 15.4495 7.81004 15.4495C8.1255 15.4495 8.44488 15.3318 8.69359 15.083Z" stroke="#131313"/>
</svg>
    