<svg width="24" height="25" viewBox="0 0 24 25" fill="none" xmlns="http://www.w3.org/2000/svg">
<path d="M19 15C16.79 15 15 16.79 15 19C15 19.75 15.21 20.46 15.58 21.06C16.27 22.22 17.54 23 19 23C20.46 23 21.73 22.22 22.42 21.06C22.79 20.46 23 19.75 23 19C23 16.79 21.21 15 19 15ZM21.07 18.57L18.94 20.54C18.8 20.67 18.61 20.74 18.43 20.74C18.24 20.74 18.05 20.67 17.9 20.52L16.91 19.53C16.62 19.24 16.62 18.76 16.91 18.47C17.2 18.18 17.68 18.18 17.97 18.47L18.45 18.95L20.05 17.47C20.35 17.19 20.83 17.21 21.11 17.51C21.39 17.81 21.37 18.28 21.07 18.57Z" stroke="#007D82"/>
<path d="M9.06051 17.2712L13.5703 13.2361M11.5204 19.4722L13.5703 17.638M4.48015 15.5002L13.4998 7.42992C13.8073 7.15473 14.2244 7.00008 14.6593 7H21.3601C21.795 7 22.2121 7.15459 22.5197 7.42977C22.8272 7.70494 23 8.07816 23 8.46732V14.4628C22.9999 14.8519 22.8271 15.225 22.5195 15.5002L13.4998 23.5704C13.1923 23.8455 12.7752 24 12.3404 24C11.9055 24 11.4885 23.8455 11.1809 23.5704L4.48015 17.5749C4.17271 17.2998 4 16.9266 4 16.5375C4 16.1485 4.17271 15.7753 4.48015 15.5002Z" stroke="#007D82" stroke-width="2" stroke-linecap="round" stroke-linejoin="round"/>
<path d="M20.2501 14.3939C20.2501 14.5341 20.1865 14.6686 20.0732 14.7677C19.9599 14.8669 19.8062 14.9226 19.6459 14.9226C19.4857 14.9226 19.332 14.8669 19.2187 14.7677C19.1054 14.6686 19.0417 14.5341 19.0417 14.3939C19.0417 14.2537 19.1054 14.1192 19.2187 14.0201C19.332 13.9209 19.4857 13.8652 19.6459 13.8652C19.8062 13.8652 19.9599 13.9209 20.0732 14.0201C20.1865 14.1192 20.2501 14.2537 20.2501 14.3939Z" fill="#007D82"/>
</svg>
