<svg width="21" height="19" viewBox="0 0 21 19" fill="none" xmlns="http://www.w3.org/2000/svg">
<path d="M6.06051 11.2712L10.5703 7.23609M8.52042 13.4722L10.5703 11.638M1.48015 9.50016L10.4998 1.42992C10.8073 1.15473 11.2244 1.00008 11.6593 1H18.3601C18.795 1 19.2121 1.15459 19.5197 1.42977C19.8272 1.70494 20 2.07816 20 2.46732V8.46276C19.9999 8.85189 19.8271 9.22505 19.5195 9.50016L10.4998 17.5704C10.1923 17.8455 9.77524 18 9.34039 18C8.90553 18 8.48848 17.8455 8.18095 17.5704L1.48015 11.5749C1.17271 11.2998 1 10.9266 1 10.5375C1 10.1485 1.17271 9.77532 1.48015 9.50016Z" stroke="#007D82" stroke-width="2" stroke-linecap="round" stroke-linejoin="round"/>
</svg>
