<svg width="18" height="18" viewBox="0 0 18 18" fill="none" xmlns="http://www.w3.org/2000/svg">
<path d="M11.35 4.20949C13.2162 4.20949 14.74 2.68563 14.74 0.819492C14.74 0.652952 14.9252 0.518701 15.1077 0.612257C16.3589 1.27894 17.21 2.60178 17.21 4.11949V13.5295C17.21 15.7134 15.4239 17.4995 13.24 17.4995H4.76004C2.57618 17.4995 0.790039 15.7133 0.790039 13.5295V4.11949C0.790039 2.60178 1.64117 1.27893 2.89236 0.61225C3.0749 0.51871 3.26004 0.652957 3.26004 0.819492C3.26004 2.68563 4.7839 4.20949 6.65004 4.20949H11.35ZM8.69359 13.083L12.6936 9.08305C13.1789 8.59778 13.1789 7.8012 12.6936 7.31594C12.2083 6.83068 11.4117 6.83068 10.9265 7.31594L7.81004 10.4324L7.19359 9.81594C6.70833 9.33068 5.91175 9.33068 5.42649 9.81594C4.94122 10.3012 4.94122 11.0978 5.42649 11.583L6.92649 13.083C7.17519 13.3318 7.49458 13.4495 7.81004 13.4495C8.1255 13.4495 8.44488 13.3318 8.69359 13.083Z" stroke="#131313"/>
</svg>
